<svg id="visual" viewBox="0 0 4000 600" width="4000" height="600" xmlns="http://www.w3.org/2000/svg" xmlns:xlink="http://www.w3.org/1999/xlink" version="1.1"><rect x="0" y="0" width="4000" height="600" fill="#ffffff"></rect><path d="M0 208L83.3 203.3C166.7 198.7 333.3 189.3 500 186C666.7 182.7 833.3 185.3 1000 191C1166.7 196.7 1333.3 205.3 1500 212.8C1666.7 220.3 1833.3 226.7 2000 225C2166.7 223.3 2333.3 213.7 2500 199.8C2666.7 186 2833.3 168 3000 167.3C3166.7 166.7 3333.3 183.3 3500 194C3666.7 204.7 3833.3 209.3 3916.7 211.7L4000 214L4000 0L3916.7 0C3833.3 0 3666.7 0 3500 0C3333.3 0 3166.7 0 3000 0C2833.3 0 2666.7 0 2500 0C2333.3 0 2166.7 0 2000 0C1833.3 0 1666.7 0 1500 0C1333.3 0 1166.7 0 1000 0C833.3 0 666.7 0 500 0C333.3 0 166.7 0 83.3 0L0 0Z" fill="#00e1bf" stroke-linecap="round" stroke-linejoin="miter"></path></svg>