<svg id="visual" viewBox="0 0 1024 600" width="1024" height="600" xmlns="http://www.w3.org/2000/svg" xmlns:xlink="http://www.w3.org/1999/xlink" version="1.1"><path d="M0 208L22.5 203.3C45 198.7 90 189.3 135 186C180 182.7 225 185.3 270 191C315 196.7 360 205.3 405 212.8C450 220.3 495 226.7 540 225C585 223.3 630 213.7 675 199.8C720 186 765 168 810 167.3C855 166.7 900 183.3 945 194C990 204.7 1035 209.3 1057.5 211.7L1080 214L1080 0L1057.5 0C1035 0 990 0 945 0C900 0 855 0 810 0C765 0 720 0 675 0C630 0 585 0 540 0C495 0 450 0 405 0C360 0 315 0 270 0C225 0 180 0 135 0C90 0 45 0 22.5 0L0 0Z" fill="#00e1bf" stroke-linecap="round" stroke-linejoin="miter"></path></svg>
