<?xml version="1.0" encoding="UTF-8" standalone="no"?>
<svg
   xmlns:dc="http://purl.org/dc/elements/1.1/"
   xmlns:cc="http://creativecommons.org/ns#"
   xmlns:rdf="http://www.w3.org/1999/02/22-rdf-syntax-ns#"
   xmlns:svg="http://www.w3.org/2000/svg"
   xmlns="http://www.w3.org/2000/svg"
   viewBox="0 0 1066.6667 800"
   height="800"
   width="1066.6667"
   xml:space="preserve"
   id="svg2"
   version="1.1"><metadata
     id="metadata8"><rdf:RDF><cc:Work
         rdf:about=""><dc:format>image/svg+xml</dc:format><dc:type
           rdf:resource="http://purl.org/dc/dcmitype/StillImage" /></cc:Work></rdf:RDF></metadata><defs
     id="defs6"><clipPath
       id="clipPath18"
       clipPathUnits="userSpaceOnUse"><path
         id="path16"
         d="M 0,600 H 800 V 0 H 0 Z" /></clipPath></defs><g
     transform="matrix(1.3333333,0,0,-1.3333333,0,800)"
     id="g10"><g
       id="g12"><g
         clip-path="url(#clipPath18)"
         id="g14"><g
           transform="translate(759.3086,563.9888)"
           id="g20"><path
             id="path22"
             style="fill:none;stroke:#333333;stroke-width:1.01400006;stroke-linecap:butt;stroke-linejoin:miter;stroke-miterlimit:10;stroke-dasharray:none;stroke-opacity:1"
             d="M 0,0 H 34.584 V -561.987 H -753.202 V 0 h 33.999" /></g><g
           transform="translate(77.1558,562.8608)"
           id="g24"><path
             id="path26"
             style="fill:#333333;fill-opacity:1;fill-rule:nonzero;stroke:none"
             d="m 0,0 c -3.049,9.812 -4.766,15.36 -5.15,16.647 -0.384,1.286 -0.659,2.302 -0.824,3.049 C -6.659,17.041 -8.619,10.475 -11.855,0 Z M 5.601,-18.918 2.302,-8.09 h -16.584 l -3.299,-10.828 h -10.392 l 16.056,45.677 h 11.792 l 16.118,-45.677 z" /></g><g
           transform="translate(113.083,579.3833)"
           id="g28"><path
             id="path30"
             style="fill:#333333;fill-opacity:1;fill-rule:nonzero;stroke:none"
             d="M 0,0 C 1.286,0 2.354,-0.093 3.205,-0.28 L 2.489,-9.179 c -0.767,0.207 -1.701,0.311 -2.8,0.311 -3.029,0 -5.388,-0.778 -7.079,-2.334 -1.691,-1.555 -2.536,-3.734 -2.536,-6.534 v -17.705 h -9.49 v 34.788 h 7.187 l 1.401,-5.85 h 0.467 c 1.078,1.949 2.536,3.521 4.371,4.714 C -4.154,-0.597 -2.158,0 0,0" /></g><g
           transform="translate(132.7988,550.8813)"
           id="g32"><path
             id="path34"
             style="fill:#333333;fill-opacity:1;fill-rule:nonzero;stroke:none"
             d="m 0,0 c 1.66,0 3.651,0.362 5.975,1.089 v -7.064 c -2.365,-1.057 -5.27,-1.586 -8.713,-1.586 -3.796,0 -6.56,0.959 -8.292,2.878 -1.733,1.918 -2.598,4.797 -2.598,8.635 v 16.771 h -4.543 v 4.014 l 5.227,3.174 2.738,7.343 h 6.068 V 27.849 H 5.601 V 20.723 H -4.138 V 3.952 c 0,-1.349 0.378,-2.345 1.136,-2.988 C -2.246,0.321 -1.245,0 0,0" /></g><path
           id="path36"
           style="fill:#333333;fill-opacity:1;fill-rule:nonzero;stroke:none"
           d="m 150.835,543.942 h -9.49 v 34.788 h 9.49 z m -9.895,43.78 c 0,3.091 1.722,4.636 5.165,4.636 3.443,0 5.166,-1.545 5.166,-4.636 0,-1.473 -0.431,-2.619 -1.292,-3.438 -0.861,-0.82 -2.152,-1.229 -3.874,-1.229 -3.443,0 -5.165,1.556 -5.165,4.667" /><path
           id="path38"
           style="fill:#333333;fill-opacity:1;fill-rule:nonzero;stroke:none"
           d="m 190.497,543.942 h -9.49 v 34.788 h 9.49 z m -9.895,43.78 c 0,3.091 1.721,4.636 5.165,4.636 3.443,0 5.165,-1.545 5.165,-4.636 0,-1.473 -0.431,-2.619 -1.291,-3.438 -0.861,-0.82 -2.152,-1.229 -3.874,-1.229 -3.444,0 -5.165,1.556 -5.165,4.667 m -5.041,-16.118 h -8.214 v -27.662 h -9.491 v 27.662 h -5.227 v 4.574 l 5.227,2.552 v 2.551 c 0,3.962 0.975,6.856 2.925,8.681 1.949,1.826 5.072,2.739 9.366,2.739 3.277,0 6.192,-0.488 8.744,-1.463 l -2.428,-6.969 c -1.908,0.601 -3.671,0.902 -5.289,0.902 -1.349,0 -2.324,-0.4 -2.925,-1.198 -0.602,-0.799 -0.902,-1.821 -0.902,-3.065 v -2.178 h 8.214 z" /><g
           transform="translate(210.0879,543.3203)"
           id="g40"><path
             id="path42"
             style="fill:#333333;fill-opacity:1;fill-rule:nonzero;stroke:none"
             d="m 0,0 c -10.828,0 -16.242,5.943 -16.242,17.829 0,5.912 1.472,10.429 4.418,13.551 2.946,3.122 7.167,4.683 12.664,4.683 4.024,0 7.634,-0.789 10.828,-2.365 l -2.8,-7.343 c -1.493,0.601 -2.884,1.094 -4.169,1.478 -1.287,0.383 -2.573,0.575 -3.859,0.575 -4.937,0 -7.405,-3.506 -7.405,-10.517 0,-6.804 2.468,-10.205 7.405,-10.205 1.826,0 3.516,0.243 5.072,0.731 1.556,0.487 3.111,1.249 4.668,2.287 V 2.583 C 9.044,1.607 7.494,0.933 5.928,0.56 4.361,0.187 2.385,0 0,0" /></g><path
           id="path44"
           style="fill:#333333;fill-opacity:1;fill-rule:nonzero;stroke:none"
           d="m 233.756,543.942 h -9.49 v 34.788 h 9.49 z m -9.895,43.78 c 0,3.091 1.722,4.636 5.165,4.636 3.443,0 5.165,-1.545 5.165,-4.636 0,-1.473 -0.43,-2.619 -1.291,-3.438 -0.861,-0.82 -2.152,-1.229 -3.874,-1.229 -3.443,0 -5.165,1.556 -5.165,4.667" /><g
           transform="translate(258.5439,560.0605)"
           id="g46"><path
             id="path48"
             style="fill:#333333;fill-opacity:1;fill-rule:nonzero;stroke:none"
             d="m 0,0 -3.671,-0.125 c -2.76,-0.083 -4.813,-0.581 -6.162,-1.493 -1.348,-0.913 -2.022,-2.303 -2.022,-4.17 0,-2.676 1.535,-4.014 4.605,-4.014 2.199,0 3.957,0.633 5.274,1.898 C -0.659,-6.639 0,-4.958 0,-2.863 Z m 2.801,-16.118 -1.836,4.729 H 0.716 c -1.598,-2.012 -3.241,-3.407 -4.932,-4.185 -1.691,-0.778 -3.895,-1.166 -6.612,-1.166 -3.34,0 -5.969,0.953 -7.888,2.862 -1.919,1.908 -2.878,4.626 -2.878,8.152 0,3.693 1.291,6.415 3.874,8.168 2.582,1.753 6.477,2.723 11.684,2.91 L 0,5.539 v 1.524 c 0,3.526 -1.805,5.29 -5.414,5.29 -2.78,0 -6.047,-0.84 -9.801,-2.52 l -3.143,6.409 c 4.003,2.095 8.442,3.143 13.317,3.143 4.668,0 8.246,-1.017 10.735,-3.05 2.49,-2.033 3.734,-5.124 3.734,-9.272 v -23.181 z" /></g><path
           id="path50"
           style="fill:#333333;fill-opacity:1;fill-rule:nonzero;stroke:none"
           d="m 282.772,543.942 h -9.49 v 48.416 h 9.49 z" /><g
           transform="translate(341.4648,543.9424)"
           id="g52"><path
             id="path54"
             style="fill:#333333;fill-opacity:1;fill-rule:nonzero;stroke:none"
             d="M 0,0 H -12.26 L -32.049,34.414 H -32.33 C -31.936,28.336 -31.738,24 -31.738,21.408 V 0 h -8.619 v 45.491 h 12.166 L -8.433,11.419 h 0.218 c -0.311,5.913 -0.467,10.092 -0.467,12.54 V 45.491 H 0 Z" /></g><g
           transform="translate(362.1147,572.6309)"
           id="g56"><path
             id="path58"
             style="fill:#333333;fill-opacity:1;fill-rule:nonzero;stroke:none"
             d="M 0,0 C -2.013,0 -3.589,-0.638 -4.73,-1.914 -5.871,-3.189 -6.524,-4.999 -6.69,-7.343 H 6.627 C 6.585,-4.999 5.974,-3.189 4.792,-1.914 3.609,-0.638 2.012,0 0,0 m 1.338,-29.311 c -5.601,0 -9.978,1.545 -13.131,4.637 -3.153,3.09 -4.729,7.467 -4.729,13.13 0,5.829 1.457,10.336 4.371,13.52 2.914,3.184 6.944,4.776 12.089,4.776 4.916,0 8.743,-1.4 11.481,-4.2 2.739,-2.801 4.107,-6.67 4.107,-11.607 V -13.66 H -6.908 c 0.104,-2.696 0.903,-4.802 2.396,-6.316 1.493,-1.515 3.589,-2.272 6.285,-2.272 2.095,0 4.077,0.218 5.943,0.654 1.867,0.435 3.817,1.13 5.85,2.085 v -7.344 c -1.66,-0.83 -3.433,-1.446 -5.32,-1.851 -1.889,-0.404 -4.191,-0.607 -6.908,-0.607" /></g><g
           transform="translate(405.541,543.9424)"
           id="g60"><path
             id="path62"
             style="fill:#333333;fill-opacity:1;fill-rule:nonzero;stroke:none"
             d="M 0,0 -1.275,4.45 H -1.773 C -2.79,2.832 -4.231,1.582 -6.099,0.7 c -1.866,-0.881 -3.993,-1.322 -6.379,-1.322 -4.086,0 -7.167,1.094 -9.241,3.282 -2.074,2.189 -3.111,5.337 -3.111,9.444 v 22.684 h 9.49 V 14.469 c 0,-2.511 0.446,-4.393 1.338,-5.648 0.892,-1.255 2.313,-1.882 4.263,-1.882 2.655,0 4.574,0.887 5.757,2.66 1.181,1.774 1.773,4.714 1.773,8.821 v 16.368 h 9.49 L 7.281,0 Z" /></g><g
           transform="translate(437.7344,579.3833)"
           id="g64"><path
             id="path66"
             style="fill:#333333;fill-opacity:1;fill-rule:nonzero;stroke:none"
             d="M 0,0 C 1.286,0 2.354,-0.093 3.205,-0.28 L 2.489,-9.179 c -0.767,0.207 -1.701,0.311 -2.8,0.311 -3.029,0 -5.388,-0.778 -7.079,-2.334 -1.691,-1.555 -2.536,-3.734 -2.536,-6.534 v -17.705 h -9.49 v 34.788 h 7.187 l 1.401,-5.85 h 0.467 c 1.078,1.949 2.536,3.521 4.372,4.714 C -4.153,-0.597 -2.157,0 0,0" /></g><g
           transform="translate(462.0869,560.0605)"
           id="g68"><path
             id="path70"
             style="fill:#333333;fill-opacity:1;fill-rule:nonzero;stroke:none"
             d="m 0,0 -3.672,-0.125 c -2.759,-0.083 -4.812,-0.581 -6.161,-1.493 -1.349,-0.913 -2.022,-2.303 -2.022,-4.17 0,-2.676 1.535,-4.014 4.605,-4.014 2.198,0 3.956,0.633 5.273,1.898 C -0.659,-6.639 0,-4.958 0,-2.863 Z m 2.8,-16.118 -1.836,4.729 H 0.716 c -1.598,-2.012 -3.242,-3.407 -4.933,-4.185 -1.69,-0.778 -3.894,-1.166 -6.611,-1.166 -3.341,0 -5.97,0.953 -7.889,2.862 -1.919,1.908 -2.878,4.626 -2.878,8.152 0,3.693 1.291,6.415 3.874,8.168 2.583,1.753 6.477,2.723 11.684,2.91 L 0,5.539 v 1.524 c 0,3.526 -1.805,5.29 -5.414,5.29 -2.78,0 -6.048,-0.84 -9.802,-2.52 l -3.142,6.409 c 4.003,2.095 8.442,3.143 13.317,3.143 4.667,0 8.246,-1.017 10.735,-3.05 2.49,-2.033 3.734,-5.124 3.734,-9.272 v -23.181 z" /></g><path
           id="path72"
           style="fill:#333333;fill-opacity:1;fill-rule:nonzero;stroke:none"
           d="m 486.314,543.942 h -9.49 v 48.416 h 9.49 z" /><g
           transform="translate(545.0078,543.9424)"
           id="g74"><path
             id="path76"
             style="fill:#333333;fill-opacity:1;fill-rule:nonzero;stroke:none"
             d="m 0,0 h -12.259 l -19.79,34.414 h -0.28 C -31.936,28.336 -31.737,24 -31.737,21.408 V 0 h -8.619 V 45.491 H -28.19 L -8.432,11.419 h 0.218 c -0.311,5.913 -0.467,10.092 -0.467,12.54 V 45.491 H 0 Z" /></g><g
           transform="translate(565.6572,572.6309)"
           id="g78"><path
             id="path80"
             style="fill:#333333;fill-opacity:1;fill-rule:nonzero;stroke:none"
             d="M 0,0 C -2.012,0 -3.589,-0.638 -4.729,-1.914 -5.87,-3.189 -6.523,-4.999 -6.689,-7.343 H 6.628 C 6.586,-4.999 5.975,-3.189 4.792,-1.914 3.609,-0.638 2.012,0 0,0 m 1.338,-29.311 c -5.601,0 -9.978,1.545 -13.131,4.637 -3.153,3.09 -4.729,7.467 -4.729,13.13 0,5.829 1.457,10.336 4.372,13.52 2.914,3.184 6.943,4.776 12.088,4.776 4.916,0 8.744,-1.4 11.482,-4.2 2.738,-2.801 4.107,-6.67 4.107,-11.607 V -13.66 H -6.907 c 0.103,-2.696 0.902,-4.802 2.395,-6.316 1.494,-1.515 3.589,-2.272 6.285,-2.272 2.096,0 4.077,0.218 5.944,0.654 1.867,0.435 3.816,1.13 5.849,2.085 v -7.344 c -1.659,-0.83 -3.432,-1.446 -5.32,-1.851 -1.888,-0.404 -4.19,-0.607 -6.908,-0.607" /></g><g
           transform="translate(599.0957,550.8813)"
           id="g82"><path
             id="path84"
             style="fill:#333333;fill-opacity:1;fill-rule:nonzero;stroke:none"
             d="m 0,0 c 1.659,0 3.651,0.362 5.975,1.089 v -7.064 c -2.366,-1.057 -5.27,-1.586 -8.713,-1.586 -3.796,0 -6.561,0.959 -8.292,2.878 -1.733,1.918 -2.599,4.797 -2.599,8.635 v 16.771 h -4.542 v 4.014 l 5.227,3.174 2.738,7.343 h 6.068 V 27.849 H 5.601 V 20.723 H -4.138 V 3.952 c 0,-1.349 0.378,-2.345 1.136,-2.988 C -2.245,0.321 -1.244,0 0,0" /></g><g
           transform="translate(636.2363,543.9424)"
           id="g86"><path
             id="path88"
             style="fill:#333333;fill-opacity:1;fill-rule:nonzero;stroke:none"
             d="M 0,0 -2.677,12.166 -6.286,27.538 H -6.504 L -12.852,0 h -10.205 l -9.895,34.788 h 9.459 l 4.014,-15.403 c 0.643,-2.759 1.296,-6.565 1.96,-11.419 h 0.187 c 0.083,1.576 0.446,4.076 1.089,7.498 l 0.498,2.645 4.294,16.679 H -0.996 L 3.08,18.109 C 3.163,17.653 3.293,16.979 3.469,16.087 3.646,15.195 3.816,14.246 3.982,13.24 4.148,12.233 4.299,11.249 4.434,10.284 4.568,9.319 4.646,8.546 4.667,7.966 h 0.187 c 0.186,1.493 0.518,3.541 0.996,6.145 0.476,2.603 0.819,4.361 1.026,5.274 l 4.17,15.403 H 20.35 L 10.33,0 Z" /></g><g
           transform="translate(665.2881,561.3984)"
           id="g90"><path
             id="path92"
             style="fill:#333333;fill-opacity:1;fill-rule:nonzero;stroke:none"
             d="m 0,0 c 0,-3.444 0.564,-6.047 1.695,-7.81 1.131,-1.764 2.972,-2.645 5.524,-2.645 2.53,0 4.35,0.876 5.461,2.629 1.109,1.753 1.664,4.361 1.664,7.826 0,3.443 -0.56,6.025 -1.68,7.748 C 11.544,9.469 9.708,10.33 7.156,10.33 4.625,10.33 2.8,9.475 1.68,7.763 0.56,6.052 0,3.464 0,0 m 24.052,0 c 0,-5.663 -1.493,-10.092 -4.481,-13.287 -2.987,-3.194 -7.146,-4.791 -12.477,-4.791 -3.34,0 -6.285,0.731 -8.837,2.193 -2.551,1.463 -4.512,3.563 -5.881,6.301 -1.369,2.738 -2.054,5.933 -2.054,9.584 0,5.683 1.484,10.102 4.45,13.255 2.966,3.153 7.136,4.73 12.508,4.73 3.34,0 6.286,-0.727 8.837,-2.178 2.552,-1.453 4.512,-3.537 5.881,-6.255 C 23.367,6.834 24.052,3.65 24.052,0" /></g><g
           transform="translate(712.1357,579.3833)"
           id="g94"><path
             id="path96"
             style="fill:#333333;fill-opacity:1;fill-rule:nonzero;stroke:none"
             d="M 0,0 C 1.286,0 2.354,-0.093 3.205,-0.28 L 2.489,-9.179 c -0.767,0.207 -1.701,0.311 -2.8,0.311 -3.029,0 -5.388,-0.778 -7.079,-2.334 -1.691,-1.555 -2.536,-3.734 -2.536,-6.534 v -17.705 h -9.49 v 34.788 h 7.187 l 1.401,-5.85 h 0.467 c 1.078,1.949 2.536,3.521 4.372,4.714 C -4.153,-0.597 -2.157,0 0,0" /></g><g
           transform="translate(726.3145,562.8608)"
           id="g98"><path
             id="path100"
             style="fill:#333333;fill-opacity:1;fill-rule:nonzero;stroke:none"
             d="m 0,0 4.138,5.29 9.739,10.579 H 24.581 L 10.766,0.778 25.421,-18.918 H 14.469 L 4.449,-4.823 0.373,-8.09 v -10.828 h -9.49 v 48.416 h 9.49 V 7.903 L -0.125,0 Z" /></g><g
           transform="translate(252.3633,496.3906)"
           id="g102"><path
             id="path104"
             style="fill:#333333;fill-opacity:1;fill-rule:nonzero;stroke:none"
             d="m 0,0 c -3.049,9.812 -4.766,15.36 -5.15,16.647 -0.384,1.286 -0.659,2.302 -0.824,3.049 C -6.659,17.041 -8.619,10.475 -11.855,0 Z M 5.601,-18.918 2.302,-8.09 h -16.584 l -3.299,-10.828 h -10.392 l 16.056,45.677 h 11.792 l 16.118,-45.677 z" /></g><g
           transform="translate(288.2905,512.9131)"
           id="g106"><path
             id="path108"
             style="fill:#333333;fill-opacity:1;fill-rule:nonzero;stroke:none"
             d="M 0,0 C 1.286,0 2.354,-0.093 3.205,-0.28 L 2.489,-9.179 c -0.767,0.207 -1.701,0.311 -2.8,0.311 -3.029,0 -5.388,-0.778 -7.079,-2.334 -1.691,-1.555 -2.536,-3.734 -2.536,-6.534 v -17.705 h -9.49 v 34.788 h 7.187 l 1.401,-5.85 h 0.467 c 1.078,1.949 2.536,3.521 4.371,4.714 C -4.154,-0.597 -2.158,0 0,0" /></g><g
           transform="translate(307.4775,476.8501)"
           id="g110"><path
             id="path112"
             style="fill:#333333;fill-opacity:1;fill-rule:nonzero;stroke:none"
             d="m 0,0 c -10.828,0 -16.242,5.943 -16.242,17.829 0,5.912 1.472,10.429 4.418,13.551 2.946,3.122 7.167,4.683 12.664,4.683 4.024,0 7.634,-0.789 10.828,-2.365 l -2.8,-7.343 c -1.493,0.601 -2.884,1.094 -4.169,1.478 -1.287,0.383 -2.573,0.575 -3.859,0.575 -4.937,0 -7.405,-3.506 -7.405,-10.517 0,-6.804 2.468,-10.205 7.405,-10.205 1.826,0 3.516,0.243 5.072,0.731 1.556,0.487 3.111,1.249 4.668,2.287 V 2.583 C 9.044,1.607 7.494,0.933 5.928,0.56 4.361,0.187 2.385,0 0,0" /></g><g
           transform="translate(353.7666,477.4722)"
           id="g114"><path
             id="path116"
             style="fill:#333333;fill-opacity:1;fill-rule:nonzero;stroke:none"
             d="m 0,0 h -9.49 v 20.318 c 0,5.02 -1.867,7.531 -5.601,7.531 -2.656,0 -4.574,-0.903 -5.757,-2.707 -1.182,-1.805 -1.773,-4.73 -1.773,-8.775 V 0 h -9.49 v 48.416 h 9.49 v -9.864 c 0,-0.767 -0.073,-2.572 -0.218,-5.414 l -0.218,-2.8 h 0.498 c 2.116,3.402 5.476,5.103 10.081,5.103 4.087,0 7.188,-1.1 9.304,-3.298 C -1.058,29.943 0,26.791 0,22.684 Z" /></g><path
           id="path118"
           style="fill:#333333;fill-opacity:1;fill-rule:nonzero;stroke:none"
           d="m 368.566,477.472 h -9.49 v 34.788 h 9.49 z m -9.894,43.78 c 0,3.091 1.721,4.636 5.165,4.636 3.443,0 5.165,-1.545 5.165,-4.636 0,-1.473 -0.431,-2.619 -1.291,-3.439 -0.861,-0.819 -2.152,-1.229 -3.874,-1.229 -3.444,0 -5.165,1.557 -5.165,4.668" /><g
           transform="translate(388.7183,484.4111)"
           id="g120"><path
             id="path122"
             style="fill:#333333;fill-opacity:1;fill-rule:nonzero;stroke:none"
             d="m 0,0 c 1.66,0 3.651,0.362 5.975,1.089 v -7.064 c -2.365,-1.057 -5.27,-1.586 -8.713,-1.586 -3.796,0 -6.56,0.959 -8.292,2.878 -1.733,1.918 -2.598,4.797 -2.598,8.635 v 16.771 h -4.543 v 4.014 l 5.227,3.174 2.738,7.343 h 6.068 V 27.849 H 5.601 V 20.723 H -4.138 V 3.952 c 0,-1.349 0.378,-2.345 1.136,-2.988 C -2.246,0.321 -1.245,0 0,0" /></g><g
           transform="translate(411.6699,506.1606)"
           id="g124"><path
             id="path126"
             style="fill:#333333;fill-opacity:1;fill-rule:nonzero;stroke:none"
             d="m 0,0 c -2.012,0 -3.588,-0.638 -4.729,-1.914 -1.14,-1.275 -1.794,-3.085 -1.96,-5.429 H 6.629 C 6.586,-4.999 5.975,-3.189 4.793,-1.914 3.609,-0.638 2.012,0 0,0 m 1.338,-29.311 c -5.6,0 -9.977,1.545 -13.13,4.637 -3.153,3.09 -4.729,7.467 -4.729,13.13 0,5.829 1.457,10.336 4.371,13.52 2.914,3.184 6.943,4.776 12.089,4.776 4.916,0 8.743,-1.4 11.481,-4.2 2.738,-2.801 4.107,-6.67 4.107,-11.607 V -13.66 H -6.906 c 0.103,-2.696 0.902,-4.802 2.394,-6.316 1.494,-1.515 3.59,-2.272 6.285,-2.272 2.096,0 4.077,0.218 5.944,0.654 1.867,0.435 3.816,1.13 5.849,2.085 v -7.344 c -1.658,-0.83 -3.431,-1.446 -5.32,-1.851 -1.887,-0.404 -4.189,-0.607 -6.908,-0.607" /></g><g
           transform="translate(444.5801,476.8501)"
           id="g128"><path
             id="path130"
             style="fill:#333333;fill-opacity:1;fill-rule:nonzero;stroke:none"
             d="m 0,0 c -10.829,0 -16.243,5.943 -16.243,17.829 0,5.912 1.472,10.429 4.419,13.551 2.945,3.122 7.167,4.683 12.664,4.683 4.024,0 7.634,-0.789 10.828,-2.365 L 8.867,26.355 c -1.493,0.601 -2.883,1.094 -4.169,1.478 -1.287,0.383 -2.572,0.575 -3.858,0.575 -4.938,0 -7.405,-3.506 -7.405,-10.517 0,-6.804 2.467,-10.205 7.405,-10.205 1.825,0 3.515,0.243 5.071,0.731 1.557,0.487 3.112,1.249 4.668,2.287 V 2.583 C 9.044,1.607 7.493,0.933 5.927,0.56 4.36,0.187 2.385,0 0,0" /></g><g
           transform="translate(473.4131,484.4111)"
           id="g132"><path
             id="path134"
             style="fill:#333333;fill-opacity:1;fill-rule:nonzero;stroke:none"
             d="m 0,0 c 1.659,0 3.651,0.362 5.975,1.089 v -7.064 c -2.366,-1.057 -5.27,-1.586 -8.713,-1.586 -3.796,0 -6.561,0.959 -8.292,2.878 -1.733,1.918 -2.599,4.797 -2.599,8.635 v 16.771 h -4.542 v 4.014 l 5.227,3.174 2.738,7.343 h 6.068 V 27.849 H 5.601 V 20.723 H -4.138 V 3.952 c 0,-1.349 0.378,-2.345 1.136,-2.988 C -2.245,0.321 -1.244,0 0,0" /></g><g
           transform="translate(506.6025,477.4722)"
           id="g136"><path
             id="path138"
             style="fill:#333333;fill-opacity:1;fill-rule:nonzero;stroke:none"
             d="M 0,0 -1.275,4.45 H -1.773 C -2.79,2.832 -4.231,1.582 -6.099,0.7 c -1.867,-0.881 -3.993,-1.322 -6.379,-1.322 -4.086,0 -7.167,1.094 -9.241,3.282 -2.074,2.189 -3.111,5.337 -3.111,9.444 v 22.684 h 9.49 V 14.469 c 0,-2.511 0.445,-4.393 1.338,-5.648 0.892,-1.255 2.313,-1.882 4.263,-1.882 2.655,0 4.574,0.887 5.757,2.66 1.181,1.774 1.773,4.714 1.773,8.821 v 16.368 h 9.49 L 7.281,0 Z" /></g><g
           transform="translate(538.7959,512.9131)"
           id="g140"><path
             id="path142"
             style="fill:#333333;fill-opacity:1;fill-rule:nonzero;stroke:none"
             d="M 0,0 C 1.286,0 2.354,-0.093 3.205,-0.28 L 2.489,-9.179 c -0.767,0.207 -1.701,0.311 -2.8,0.311 -3.029,0 -5.388,-0.778 -7.079,-2.334 -1.691,-1.555 -2.536,-3.734 -2.536,-6.534 v -17.705 h -9.49 v 34.788 h 7.187 l 1.401,-5.85 h 0.467 c 1.078,1.949 2.536,3.521 4.372,4.714 C -4.153,-0.597 -2.157,0 0,0" /></g><g
           transform="translate(558.2627,506.1606)"
           id="g144"><path
             id="path146"
             style="fill:#333333;fill-opacity:1;fill-rule:nonzero;stroke:none"
             d="M 0,0 C -2.012,0 -3.589,-0.638 -4.729,-1.914 -5.87,-3.189 -6.523,-4.999 -6.689,-7.343 H 6.628 C 6.586,-4.999 5.975,-3.189 4.792,-1.914 3.609,-0.638 2.012,0 0,0 m 1.338,-29.311 c -5.601,0 -9.978,1.545 -13.131,4.637 -3.153,3.09 -4.729,7.467 -4.729,13.13 0,5.829 1.457,10.336 4.372,13.52 2.914,3.184 6.943,4.776 12.088,4.776 4.916,0 8.744,-1.4 11.482,-4.2 2.738,-2.801 4.107,-6.67 4.107,-11.607 V -13.66 H -6.907 c 0.103,-2.696 0.902,-4.802 2.395,-6.316 1.494,-1.515 3.589,-2.272 6.285,-2.272 2.096,0 4.077,0.218 5.944,0.654 1.867,0.435 3.816,1.13 5.849,2.085 v -7.344 c -1.659,-0.83 -3.432,-1.446 -5.32,-1.851 -1.888,-0.404 -4.19,-0.607 -6.908,-0.607" /></g><g
           transform="translate(405.8828,422.2271)"
           id="g148"><path
             id="path150"
             style="fill:none;stroke:#999999;stroke-width:3.00500011;stroke-linecap:butt;stroke-linejoin:miter;stroke-miterlimit:10;stroke-dasharray:none;stroke-opacity:1"
             d="m 0,0 -327.462,-50.946 325.14,-25.816 -325.14,-79.637 325.14,5.391 L -329.167,-261.852 -2.041,-302 -327.462,-156.399 -2.041,0 -327.462,-261.852 -2.322,-76.762" /></g><g
           transform="translate(78.4209,160.375)"
           id="g152"><path
             id="path154"
             style="fill:none;stroke:#999999;stroke-width:3.00500011;stroke-linecap:butt;stroke-linejoin:miter;stroke-miterlimit:10;stroke-dasharray:none;stroke-opacity:1"
             d="M 0,0 325.14,36.599 0,210.906 325.14,-37.647" /></g><g
           transform="translate(78.4209,371.2812)"
           id="g156"><path
             id="path158"
             style="fill:none;stroke:#999999;stroke-width:3.00500011;stroke-linecap:butt;stroke-linejoin:miter;stroke-miterlimit:10;stroke-dasharray:none;stroke-opacity:1"
             d="M 0,0 325.14,-100.063" /></g><g
           transform="translate(78.4209,265.8281)"
           id="g160"><path
             id="path162"
             style="fill:none;stroke:#999999;stroke-width:3.00500011;stroke-linecap:butt;stroke-linejoin:miter;stroke-miterlimit:10;stroke-dasharray:none;stroke-opacity:1"
             d="M 0,0 325.14,-68.854" /></g><g
           transform="translate(403.5605,419.7095)"
           id="g164"><path
             id="path166"
             style="fill:none;stroke:#999999;stroke-width:3.00500011;stroke-linecap:butt;stroke-linejoin:miter;stroke-miterlimit:10;stroke-dasharray:none;stroke-opacity:1"
             d="M 0,0 307.771,-94.5" /></g><g
           transform="translate(403.5605,345.4648)"
           id="g168"><path
             id="path170"
             style="fill:none;stroke:#999999;stroke-width:3.00500011;stroke-linecap:butt;stroke-linejoin:miter;stroke-miterlimit:10;stroke-dasharray:none;stroke-opacity:1"
             d="M 0,0 307.771,-20.255" /></g><g
           transform="translate(403.5605,271.2187)"
           id="g172"><path
             id="path174"
             style="fill:none;stroke:#999999;stroke-width:3.00500011;stroke-linecap:butt;stroke-linejoin:miter;stroke-miterlimit:10;stroke-dasharray:none;stroke-opacity:1"
             d="M 0,0 307.771,53.991" /></g><g
           transform="translate(403.5605,196.9736)"
           id="g176"><path
             id="path178"
             style="fill:none;stroke:#999999;stroke-width:3.00500011;stroke-linecap:butt;stroke-linejoin:miter;stroke-miterlimit:10;stroke-dasharray:none;stroke-opacity:1"
             d="M 0,0 307.771,128.236" /></g><g
           transform="translate(403.5605,196.9736)"
           id="g180"><path
             id="path182"
             style="fill:none;stroke:#999999;stroke-width:3.00500011;stroke-linecap:butt;stroke-linejoin:miter;stroke-miterlimit:10;stroke-dasharray:none;stroke-opacity:1"
             d="M 0,0 307.771,44.402" /></g><g
           transform="translate(403.5605,122.7275)"
           id="g184"><path
             id="path186"
             style="fill:none;stroke:#999999;stroke-width:3.00500011;stroke-linecap:butt;stroke-linejoin:miter;stroke-miterlimit:10;stroke-dasharray:none;stroke-opacity:1"
             d="M 0,0 307.771,118.648" /></g><g
           transform="translate(403.5605,122.7275)"
           id="g188"><path
             id="path190"
             style="fill:none;stroke:#999999;stroke-width:3.00500011;stroke-linecap:butt;stroke-linejoin:miter;stroke-miterlimit:10;stroke-dasharray:none;stroke-opacity:1"
             d="M 0,0 307.771,202.482" /></g><g
           transform="translate(711.332,241.376)"
           id="g192"><path
             id="path194"
             style="fill:none;stroke:#999999;stroke-width:3.00500011;stroke-linecap:butt;stroke-linejoin:miter;stroke-miterlimit:10;stroke-dasharray:none;stroke-opacity:1"
             d="M 0,0 -307.771,29.843" /></g><g
           transform="translate(711.332,241.376)"
           id="g196"><path
             id="path198"
             style="fill:none;stroke:#999999;stroke-width:3.00500011;stroke-linecap:butt;stroke-linejoin:miter;stroke-miterlimit:10;stroke-dasharray:none;stroke-opacity:1"
             d="M 0,0 -307.771,104.089" /></g><g
           transform="translate(711.332,241.376)"
           id="g200"><path
             id="path202"
             style="fill:none;stroke:#999999;stroke-width:3.00500011;stroke-linecap:butt;stroke-linejoin:miter;stroke-miterlimit:10;stroke-dasharray:none;stroke-opacity:1"
             d="M 0,0 -307.49,175.852" /></g><g
           transform="translate(78.4209,336.9385)"
           id="g204"><path
             id="path206"
             style="fill:#61c9db;fill-opacity:1;fill-rule:nonzero;stroke:none"
             d="m 0,0 c -18.937,0 -34.343,15.406 -34.343,34.343 0,18.936 15.406,34.343 34.343,34.343 18.937,0 34.343,-15.407 34.343,-34.343 C 34.343,15.406 18.937,0 0,0" /></g><g
           transform="translate(78.4209,410.124)"
           id="g208"><path
             id="path210"
             style="fill:#ffffff;fill-opacity:1;fill-rule:nonzero;stroke:none"
             d="m 0,0 c -21.418,0 -38.843,-17.425 -38.843,-38.843 0,-21.418 17.425,-38.843 38.843,-38.843 21.418,0 38.843,17.425 38.843,38.843 C 38.843,-17.425 21.418,0 0,0 m 0,-9 c 16.482,0 29.843,-13.361 29.843,-29.843 0,-16.481 -13.361,-29.843 -29.843,-29.843 -16.482,0 -29.843,13.362 -29.843,29.843 C -29.843,-22.361 -16.482,-9 0,-9" /></g><g
           transform="translate(403.5605,385.3662)"
           id="g212"><path
             id="path214"
             style="fill:#1d9de0;fill-opacity:1;fill-rule:nonzero;stroke:none"
             d="m 0,0 c -18.937,0 -34.343,15.406 -34.343,34.343 0,18.937 15.406,34.343 34.343,34.343 18.937,0 34.343,-15.406 34.343,-34.343 C 34.343,15.406 18.937,0 0,0" /></g><g
           transform="translate(403.5605,458.5522)"
           id="g216"><path
             id="path218"
             style="fill:#ffffff;fill-opacity:1;fill-rule:nonzero;stroke:none"
             d="m 0,0 c -21.418,0 -38.843,-17.425 -38.843,-38.843 0,-21.418 17.425,-38.843 38.843,-38.843 21.418,0 38.843,17.425 38.843,38.843 C 38.843,-17.425 21.418,0 0,0 m 0,-9 c 16.481,0 29.843,-13.362 29.843,-29.843 0,-16.481 -13.362,-29.843 -29.843,-29.843 -16.482,0 -29.843,13.362 -29.843,29.843 C -29.843,-22.362 -16.482,-9 0,-9" /></g><g
           transform="translate(403.5605,311.1221)"
           id="g220"><path
             id="path222"
             style="fill:#1d9de0;fill-opacity:1;fill-rule:nonzero;stroke:none"
             d="m 0,0 c -18.937,0 -34.343,15.406 -34.343,34.343 0,18.936 15.406,34.343 34.343,34.343 18.937,0 34.343,-15.407 34.343,-34.343 C 34.343,15.406 18.937,0 0,0" /></g><g
           transform="translate(403.5605,384.3076)"
           id="g224"><path
             id="path226"
             style="fill:#ffffff;fill-opacity:1;fill-rule:nonzero;stroke:none"
             d="m 0,0 c -21.418,0 -38.843,-17.425 -38.843,-38.843 0,-21.418 17.425,-38.843 38.843,-38.843 21.418,0 38.843,17.425 38.843,38.843 C 38.843,-17.425 21.418,0 0,0 m 0,-9 c 16.481,0 29.843,-13.361 29.843,-29.843 0,-16.481 -13.362,-29.843 -29.843,-29.843 -16.482,0 -29.843,13.362 -29.843,29.843 C -29.843,-22.361 -16.482,-9 0,-9" /></g><g
           transform="translate(403.5605,236.876)"
           id="g228"><path
             id="path230"
             style="fill:#1d9de0;fill-opacity:1;fill-rule:nonzero;stroke:none"
             d="m 0,0 c -18.937,0 -34.343,15.406 -34.343,34.343 0,18.936 15.406,34.343 34.343,34.343 18.937,0 34.343,-15.407 34.343,-34.343 C 34.343,15.406 18.937,0 0,0" /></g><g
           transform="translate(403.5605,310.0615)"
           id="g232"><path
             id="path234"
             style="fill:#ffffff;fill-opacity:1;fill-rule:nonzero;stroke:none"
             d="m 0,0 c -21.418,0 -38.843,-17.425 -38.843,-38.843 0,-21.418 17.425,-38.843 38.843,-38.843 21.418,0 38.843,17.425 38.843,38.843 C 38.843,-17.425 21.418,0 0,0 m 0,-9 c 16.481,0 29.843,-13.361 29.843,-29.843 0,-16.48 -13.362,-29.843 -29.843,-29.843 -16.482,0 -29.843,13.363 -29.843,29.843 C -29.843,-22.361 -16.482,-9 0,-9" /></g><g
           transform="translate(403.5605,162.6309)"
           id="g236"><path
             id="path238"
             style="fill:#1d9de0;fill-opacity:1;fill-rule:nonzero;stroke:none"
             d="m 0,0 c -18.937,0 -34.343,15.406 -34.343,34.343 0,18.936 15.406,34.343 34.343,34.343 18.937,0 34.343,-15.407 34.343,-34.343 C 34.343,15.406 18.937,0 0,0" /></g><g
           transform="translate(403.5605,235.8164)"
           id="g240"><path
             id="path242"
             style="fill:#ffffff;fill-opacity:1;fill-rule:nonzero;stroke:none"
             d="m 0,0 c -21.418,0 -38.843,-17.425 -38.843,-38.843 0,-21.418 17.425,-38.843 38.843,-38.843 21.418,0 38.843,17.425 38.843,38.843 C 38.843,-17.425 21.418,0 0,0 m 0,-9 c 16.481,0 29.843,-13.362 29.843,-29.843 0,-16.481 -13.362,-29.843 -29.843,-29.843 -16.482,0 -29.843,13.362 -29.843,29.843 C -29.843,-22.362 -16.482,-9 0,-9" /></g><g
           transform="translate(403.5605,88.3857)"
           id="g244"><path
             id="path246"
             style="fill:#1d9de0;fill-opacity:1;fill-rule:nonzero;stroke:none"
             d="m 0,0 c -18.937,0 -34.343,15.405 -34.343,34.342 0,18.936 15.406,34.343 34.343,34.343 18.937,0 34.343,-15.407 34.343,-34.343 C 34.343,15.405 18.937,0 0,0" /></g><g
           transform="translate(403.5605,161.5703)"
           id="g248"><path
             id="path250"
             style="fill:#ffffff;fill-opacity:1;fill-rule:nonzero;stroke:none"
             d="m 0,0 c -21.418,0 -38.843,-17.425 -38.843,-38.843 0,-21.417 17.425,-38.842 38.843,-38.842 21.418,0 38.843,17.425 38.843,38.842 C 38.843,-17.425 21.418,0 0,0 m 0,-9 c 16.481,0 29.843,-13.361 29.843,-29.843 0,-16.48 -13.362,-29.842 -29.843,-29.842 -16.482,0 -29.843,13.362 -29.843,29.842 C -29.843,-22.361 -16.482,-9 0,-9" /></g><g
           transform="translate(711.332,290.8672)"
           id="g252"><path
             id="path254"
             style="fill:#0e2947;fill-opacity:1;fill-rule:nonzero;stroke:none"
             d="m 0,0 c -18.937,0 -34.343,15.406 -34.343,34.343 0,18.936 15.406,34.343 34.343,34.343 18.937,0 34.343,-15.407 34.343,-34.343 C 34.343,15.406 18.937,0 0,0" /></g><g
           transform="translate(711.332,364.0527)"
           id="g256"><path
             id="path258"
             style="fill:#ffffff;fill-opacity:1;fill-rule:nonzero;stroke:none"
             d="m 0,0 c -21.418,0 -38.843,-17.425 -38.843,-38.843 0,-21.418 17.425,-38.843 38.843,-38.843 21.418,0 38.843,17.425 38.843,38.843 C 38.843,-17.425 21.418,0 0,0 m 0,-9 c 16.481,0 29.843,-13.361 29.843,-29.843 0,-16.481 -13.362,-29.843 -29.843,-29.843 -16.481,0 -29.843,13.362 -29.843,29.843 C -29.843,-22.361 -16.481,-9 0,-9" /></g><g
           transform="translate(711.332,207.0332)"
           id="g260"><path
             id="path262"
             style="fill:#0e2947;fill-opacity:1;fill-rule:nonzero;stroke:none"
             d="m 0,0 c -18.937,0 -34.343,15.406 -34.343,34.343 0,18.936 15.406,34.343 34.343,34.343 18.937,0 34.343,-15.407 34.343,-34.343 C 34.343,15.406 18.937,0 0,0" /></g><g
           transform="translate(711.332,280.2187)"
           id="g264"><path
             id="path266"
             style="fill:#ffffff;fill-opacity:1;fill-rule:nonzero;stroke:none"
             d="m 0,0 c -21.418,0 -38.843,-17.425 -38.843,-38.843 0,-21.418 17.425,-38.843 38.843,-38.843 21.418,0 38.843,17.425 38.843,38.843 C 38.843,-17.425 21.418,0 0,0 m 0,-9 c 16.481,0 29.843,-13.361 29.843,-29.843 0,-16.481 -13.362,-29.843 -29.843,-29.843 -16.481,0 -29.843,13.362 -29.843,29.843 C -29.843,-22.361 -16.481,-9 0,-9" /></g><g
           transform="translate(78.4209,231.4854)"
           id="g268"><path
             id="path270"
             style="fill:#61c9db;fill-opacity:1;fill-rule:nonzero;stroke:none"
             d="m 0,0 c -18.937,0 -34.343,15.406 -34.343,34.343 0,18.936 15.406,34.343 34.343,34.343 18.937,0 34.343,-15.407 34.343,-34.343 C 34.343,15.406 18.937,0 0,0" /></g><g
           transform="translate(78.4209,304.6709)"
           id="g272"><path
             id="path274"
             style="fill:#ffffff;fill-opacity:1;fill-rule:nonzero;stroke:none"
             d="m 0,0 c -21.418,0 -38.843,-17.425 -38.843,-38.843 0,-21.418 17.425,-38.843 38.843,-38.843 21.418,0 38.843,17.425 38.843,38.843 C 38.843,-17.425 21.418,0 0,0 m 0,-9 c 16.482,0 29.843,-13.361 29.843,-29.843 0,-16.481 -13.361,-29.843 -29.843,-29.843 -16.482,0 -29.843,13.362 -29.843,29.843 C -29.843,-22.361 -16.482,-9 0,-9" /></g><g
           transform="translate(78.4209,126.0322)"
           id="g276"><path
             id="path278"
             style="fill:#61c9db;fill-opacity:1;fill-rule:nonzero;stroke:none"
             d="m 0,0 c -18.937,0 -34.343,15.406 -34.343,34.343 0,18.936 15.406,34.343 34.343,34.343 18.937,0 34.343,-15.407 34.343,-34.343 C 34.343,15.406 18.937,0 0,0" /></g><g
           transform="translate(78.4209,199.2178)"
           id="g280"><path
             id="path282"
             style="fill:#ffffff;fill-opacity:1;fill-rule:nonzero;stroke:none"
             d="m 0,0 c -21.418,0 -38.843,-17.425 -38.843,-38.843 0,-21.418 17.425,-38.843 38.843,-38.843 21.418,0 38.843,17.425 38.843,38.843 C 38.843,-17.425 21.418,0 0,0 m 0,-9 c 16.482,0 29.843,-13.361 29.843,-29.843 0,-16.481 -13.361,-29.843 -29.843,-29.843 -16.482,0 -29.843,13.362 -29.843,29.843 C -29.843,-22.361 -16.482,-9 0,-9" /></g><path
           id="path284"
           style="fill:#333333;fill-opacity:1;fill-rule:nonzero;stroke:none"
           d="m 45.086,67.938 h 4.326 V 47.536 h -4.326 z" /><g
           transform="translate(67.1855,47.5352)"
           id="g286"><path
             id="path288"
             style="fill:#333333;fill-opacity:1;fill-rule:nonzero;stroke:none"
             d="m 0,0 h -4.257 v 9.113 c 0,1.125 -0.2,1.97 -0.599,2.533 -0.401,0.562 -1.038,0.844 -1.913,0.844 -1.19,0 -2.05,-0.398 -2.581,-1.193 -0.531,-0.796 -0.796,-2.114 -0.796,-3.956 V 0 h -4.256 v 15.602 h 3.252 l 0.572,-1.996 h 0.237 c 0.475,0.754 1.128,1.324 1.961,1.71 0.832,0.386 1.779,0.58 2.84,0.58 1.813,0 3.19,-0.492 4.131,-1.473 C -0.47,13.441 0,12.024 0,10.174 Z" /></g><g
           transform="translate(77.4521,60.0254)"
           id="g290"><path
             id="path292"
             style="fill:#333333;fill-opacity:1;fill-rule:nonzero;stroke:none"
             d="m 0,0 c -1.052,0 -1.819,-0.323 -2.303,-0.97 -0.484,-0.647 -0.735,-1.715 -0.754,-3.203 v -0.461 c 0,-1.674 0.249,-2.874 0.746,-3.599 0.499,-0.727 1.287,-1.089 2.367,-1.089 1.907,0 2.86,1.572 2.86,4.717 0,1.535 -0.235,2.686 -0.704,3.454 C 1.741,-0.384 1.004,0 0,0 m 1.256,-12.77 c -1.833,0 -3.271,0.666 -4.313,1.997 H -3.28 c 0.149,-1.303 0.223,-2.057 0.223,-2.261 v -6.322 H -7.313 V 3.111 h 3.46 l 0.601,-2.023 h 0.195 c 0.995,1.545 2.47,2.317 4.424,2.317 1.842,0 3.284,-0.712 4.326,-2.135 1.042,-1.423 1.563,-3.401 1.563,-5.931 0,-1.666 -0.244,-3.112 -0.733,-4.34 C 6.035,-10.229 5.34,-11.164 4.437,-11.807 3.535,-12.448 2.475,-12.77 1.256,-12.77" /></g><g
           transform="translate(97.8486,47.5352)"
           id="g294"><path
             id="path296"
             style="fill:#333333;fill-opacity:1;fill-rule:nonzero;stroke:none"
             d="M 0,0 -0.572,1.996 H -0.795 C -1.251,1.27 -1.897,0.709 -2.735,0.314 c -0.837,-0.395 -1.791,-0.593 -2.861,-0.593 -1.833,0 -3.215,0.491 -4.144,1.472 -0.931,0.982 -1.396,2.394 -1.396,4.236 V 15.602 H -6.88 V 6.489 c 0,-1.126 0.2,-1.969 0.601,-2.533 0.399,-0.562 1.037,-0.844 1.911,-0.844 1.191,0 2.052,0.398 2.582,1.194 0.53,0.795 0.796,2.114 0.796,3.956 v 7.34 H 3.266 L 3.266,0 Z" /></g><g
           transform="translate(110.7236,50.6475)"
           id="g298"><path
             id="path300"
             style="fill:#333333;fill-opacity:1;fill-rule:nonzero;stroke:none"
             d="M 0,0 C 0.744,0 1.638,0.162 2.68,0.488 V -2.68 c -1.061,-0.474 -2.364,-0.712 -3.908,-0.712 -1.703,0 -2.942,0.431 -3.719,1.291 -0.777,0.861 -1.165,2.152 -1.165,3.873 v 7.522 h -2.037 v 1.8 l 2.343,1.424 1.229,3.294 h 2.722 V 12.489 H 2.512 V 9.294 H -1.855 V 1.772 c 0,-0.605 0.168,-1.051 0.508,-1.339 C -1.007,0.144 -0.558,0 0,0" /></g><g
           transform="translate(44.0811,17.2383)"
           id="g302"><path
             id="path304"
             style="fill:#333333;fill-opacity:1;fill-rule:nonzero;stroke:none"
             d="M 0,0 V 20.402 H 4.326 V 3.572 h 8.276 V 0 Z" /></g><g
           transform="translate(67.1152,24.4668)"
           id="g306"><path
             id="path308"
             style="fill:#333333;fill-opacity:1;fill-rule:nonzero;stroke:none"
             d="m 0,0 -1.646,-0.056 c -1.238,-0.037 -2.159,-0.26 -2.763,-0.67 -0.606,-0.409 -0.907,-1.032 -0.907,-1.87 0,-1.2 0.688,-1.8 2.065,-1.8 0.985,0 1.774,0.284 2.365,0.852 C -0.295,-2.977 0,-2.224 0,-1.283 Z M 1.257,-7.229 0.433,-5.107 H 0.321 c -0.717,-0.903 -1.454,-1.529 -2.212,-1.877 -0.758,-0.349 -1.747,-0.524 -2.965,-0.524 -1.498,0 -2.677,0.428 -3.538,1.284 -0.86,0.856 -1.291,2.075 -1.291,3.657 0,1.656 0.58,2.877 1.738,3.663 1.158,0.786 2.905,1.221 5.24,1.304 L 0,2.484 V 3.168 C 0,4.75 -0.809,5.541 -2.428,5.541 -3.675,5.541 -5.14,5.164 -6.824,4.41 l -1.409,2.875 c 1.796,0.94 3.786,1.409 5.972,1.409 2.094,0 3.698,-0.456 4.815,-1.367 C 3.671,6.415 4.229,5.029 4.229,3.168 V -7.229 Z" /></g><g
           transform="translate(72.0645,32.8398)"
           id="g310"><path
             id="path312"
             style="fill:#333333;fill-opacity:1;fill-rule:nonzero;stroke:none"
             d="m 0,0 h 4.661 l 2.944,-8.777 c 0.251,-0.763 0.424,-1.666 0.517,-2.707 h 0.084 c 0.102,0.958 0.302,1.86 0.6,2.707 L 11.694,0 h 4.564 L 9.657,-17.598 c -0.605,-1.628 -1.468,-2.846 -2.589,-3.656 -1.121,-0.808 -2.43,-1.214 -3.928,-1.214 -0.735,0 -1.456,0.079 -2.163,0.238 v 3.376 c 0.511,-0.12 1.07,-0.18 1.674,-0.18 0.754,0 1.412,0.229 1.975,0.69 0.563,0.461 1.003,1.157 1.319,2.086 l 0.251,0.768 z" /></g><g
           transform="translate(95.5879,30.1055)"
           id="g314"><path
             id="path316"
             style="fill:#333333;fill-opacity:1;fill-rule:nonzero;stroke:none"
             d="m 0,0 c -0.902,0 -1.609,-0.286 -2.121,-0.858 -0.512,-0.573 -0.805,-1.384 -0.88,-2.436 H 2.973 C 2.953,-2.242 2.68,-1.431 2.149,-0.858 1.618,-0.286 0.902,0 0,0 m 0.6,-13.146 c -2.512,0 -4.475,0.693 -5.889,2.079 -1.414,1.386 -2.121,3.349 -2.121,5.889 0,2.615 0.653,4.636 1.96,6.064 1.307,1.427 3.114,2.142 5.422,2.142 2.205,0 3.922,-0.628 5.149,-1.884 1.229,-1.256 1.843,-2.992 1.843,-5.206 V -6.127 H -3.099 c 0.047,-1.209 0.406,-2.153 1.076,-2.833 0.669,-0.679 1.609,-1.019 2.818,-1.019 0.939,0 1.828,0.098 2.666,0.293 0.837,0.196 1.712,0.507 2.623,0.936 v -3.294 C 5.34,-12.416 4.545,-12.692 3.698,-12.874 2.852,-13.056 1.818,-13.146 0.6,-13.146" /></g><g
           transform="translate(113.292,33.1338)"
           id="g318"><path
             id="path320"
             style="fill:#333333;fill-opacity:1;fill-rule:nonzero;stroke:none"
             d="M 0,0 C 0.576,0 1.056,-0.042 1.437,-0.126 L 1.116,-4.117 c -0.345,0.093 -0.763,0.139 -1.256,0.139 -1.358,0 -2.417,-0.348 -3.174,-1.046 -0.759,-0.698 -1.138,-1.675 -1.138,-2.931 v -7.941 h -4.257 v 15.602 h 3.224 l 0.629,-2.623 h 0.209 c 0.483,0.874 1.137,1.579 1.96,2.114 C -1.863,-0.268 -0.968,0 0,0" /></g><g
           transform="translate(375.0249,47.5352)"
           id="g322"><path
             id="path324"
             style="fill:#333333;fill-opacity:1;fill-rule:nonzero;stroke:none"
             d="m 0,0 h -4.312 v 8.805 h -8.081 V 0 h -4.326 v 20.402 h 4.326 v -7.996 h 8.081 v 7.996 H 0 Z" /></g><path
           id="path326"
           style="fill:#333333;fill-opacity:1;fill-rule:nonzero;stroke:none"
           d="m 382.667,47.535 h -4.257 v 15.602 h 4.257 z m -4.438,19.635 c 0,1.387 0.771,2.08 2.316,2.08 1.544,0 2.317,-0.693 2.317,-2.08 0,-0.66 -0.194,-1.174 -0.579,-1.543 -0.386,-0.367 -0.966,-0.551 -1.738,-0.551 -1.545,0 -2.316,0.697 -2.316,2.094" /><g
           transform="translate(392.1372,50.6465)"
           id="g328"><path
             id="path330"
             style="fill:#333333;fill-opacity:1;fill-rule:nonzero;stroke:none"
             d="M 0,0 C 1.089,0 1.887,0.316 2.394,0.949 2.9,1.582 3.177,2.656 3.224,4.174 V 4.633 C 3.224,6.309 2.966,7.508 2.449,8.234 1.933,8.959 1.094,9.322 -0.069,9.322 -1.019,9.322 -1.756,8.92 -2.281,8.115 -2.808,7.311 -3.07,6.141 -3.07,4.605 -3.07,3.07 -2.805,1.92 -2.274,1.152 -1.744,0.385 -0.986,0 0,0 m -1.493,-3.391 c -1.833,0 -3.273,0.711 -4.319,2.135 -1.046,1.424 -1.57,3.397 -1.57,5.918 0,2.557 0.532,4.551 1.598,5.979 1.065,1.427 2.533,2.142 4.403,2.142 1.963,0 3.46,-0.763 4.493,-2.289 h 0.14 c -0.214,1.164 -0.321,2.201 -0.321,3.113 v 4.997 h 4.27 V -3.111 H 3.936 L 3.112,-1.088 H 2.931 C 1.963,-2.623 0.488,-3.391 -1.493,-3.391" /></g><g
           transform="translate(408.793,50.6465)"
           id="g332"><path
             id="path334"
             style="fill:#333333;fill-opacity:1;fill-rule:nonzero;stroke:none"
             d="M 0,0 C 1.089,0 1.887,0.316 2.394,0.949 2.9,1.582 3.177,2.656 3.224,4.174 V 4.633 C 3.224,6.309 2.966,7.508 2.449,8.234 1.933,8.959 1.094,9.322 -0.069,9.322 -1.019,9.322 -1.756,8.92 -2.281,8.115 -2.808,7.311 -3.07,6.141 -3.07,4.605 -3.07,3.07 -2.805,1.92 -2.274,1.152 -1.744,0.385 -0.986,0 0,0 m -1.493,-3.391 c -1.833,0 -3.273,0.711 -4.319,2.135 -1.046,1.424 -1.57,3.397 -1.57,5.918 0,2.557 0.532,4.551 1.598,5.979 1.065,1.427 2.533,2.142 4.403,2.142 1.963,0 3.46,-0.763 4.493,-2.289 h 0.14 c -0.214,1.164 -0.321,2.201 -0.321,3.113 v 4.997 h 4.27 V -3.111 H 3.936 L 3.112,-1.088 H 2.931 C 1.963,-2.623 0.488,-3.391 -1.493,-3.391" /></g><g
           transform="translate(425.4785,60.4023)"
           id="g336"><path
             id="path338"
             style="fill:#333333;fill-opacity:1;fill-rule:nonzero;stroke:none"
             d="m 0,0 c -0.902,0 -1.609,-0.287 -2.121,-0.859 -0.512,-0.573 -0.805,-1.383 -0.88,-2.436 H 2.973 C 2.953,-2.242 2.68,-1.432 2.149,-0.859 1.618,-0.287 0.902,0 0,0 m 0.6,-13.146 c -2.512,0 -4.475,0.693 -5.889,2.078 -1.414,1.386 -2.121,3.349 -2.121,5.89 0,2.614 0.653,4.635 1.96,6.063 1.307,1.428 3.114,2.142 5.422,2.142 2.205,0 3.922,-0.627 5.149,-1.884 1.229,-1.256 1.843,-2.991 1.843,-5.205 V -6.127 H -3.099 c 0.047,-1.209 0.406,-2.154 1.076,-2.834 0.669,-0.678 1.609,-1.018 2.818,-1.018 0.939,0 1.828,0.098 2.666,0.293 0.837,0.196 1.712,0.506 2.623,0.936 v -3.295 C 5.34,-12.416 4.545,-12.693 3.698,-12.875 2.852,-13.057 1.818,-13.146 0.6,-13.146" /></g><g
           transform="translate(448.876,47.5352)"
           id="g340"><path
             id="path342"
             style="fill:#333333;fill-opacity:1;fill-rule:nonzero;stroke:none"
             d="m 0,0 h -4.257 v 9.113 c 0,1.125 -0.2,1.969 -0.599,2.532 -0.401,0.562 -1.038,0.845 -1.913,0.845 -1.19,0 -2.05,-0.398 -2.581,-1.193 C -9.881,10.5 -10.146,9.182 -10.146,7.34 V 0 h -4.256 v 15.602 h 3.252 l 0.572,-1.997 h 0.237 c 0.475,0.754 1.128,1.325 1.961,1.711 0.832,0.385 1.779,0.579 2.84,0.579 1.813,0 3.19,-0.491 4.131,-1.473 C -0.47,13.441 0,12.023 0,10.174 Z" /></g><g
           transform="translate(369.0425,17.2383)"
           id="g344"><path
             id="path346"
             style="fill:#333333;fill-opacity:1;fill-rule:nonzero;stroke:none"
             d="M 0,0 V 20.402 H 4.326 V 3.572 h 8.276 V 0 Z" /></g><g
           transform="translate(392.0767,24.4668)"
           id="g348"><path
             id="path350"
             style="fill:#333333;fill-opacity:1;fill-rule:nonzero;stroke:none"
             d="m 0,0 -1.646,-0.057 c -1.238,-0.037 -2.159,-0.259 -2.763,-0.67 -0.606,-0.408 -0.907,-1.031 -0.907,-1.869 0,-1.201 0.688,-1.8 2.065,-1.8 0.985,0 1.774,0.283 2.365,0.851 C -0.295,-2.977 0,-2.225 0,-1.283 Z M 1.257,-7.229 0.433,-5.107 H 0.321 c -0.717,-0.903 -1.454,-1.53 -2.212,-1.877 -0.758,-0.35 -1.747,-0.524 -2.965,-0.524 -1.498,0 -2.677,0.428 -3.538,1.283 -0.86,0.856 -1.291,2.075 -1.291,3.657 0,1.656 0.58,2.877 1.738,3.664 1.158,0.785 2.905,1.22 5.24,1.304 L 0,2.484 V 3.168 C 0,4.75 -0.809,5.541 -2.428,5.541 -3.675,5.541 -5.14,5.164 -6.824,4.41 l -1.409,2.875 c 1.796,0.94 3.786,1.408 5.972,1.408 2.094,0 3.698,-0.455 4.815,-1.367 C 3.671,6.414 4.229,5.029 4.229,3.168 V -7.229 Z" /></g><g
           transform="translate(397.0259,32.8398)"
           id="g352"><path
             id="path354"
             style="fill:#333333;fill-opacity:1;fill-rule:nonzero;stroke:none"
             d="m 0,0 h 4.661 l 2.944,-8.777 c 0.251,-0.764 0.424,-1.666 0.517,-2.707 h 0.084 c 0.101,0.957 0.301,1.859 0.599,2.707 L 11.694,0 h 4.563 l -6.6,-17.598 c -0.606,-1.629 -1.468,-2.847 -2.589,-3.656 -1.121,-0.808 -2.431,-1.215 -3.928,-1.215 -0.735,0 -1.456,0.08 -2.163,0.239 v 3.376 c 0.511,-0.121 1.07,-0.181 1.674,-0.181 0.754,0 1.412,0.23 1.974,0.691 0.564,0.461 1.003,1.157 1.32,2.086 l 0.251,0.768 z" /></g><g
           transform="translate(420.5488,30.1055)"
           id="g356"><path
             id="path358"
             style="fill:#333333;fill-opacity:1;fill-rule:nonzero;stroke:none"
             d="m 0,0 c -0.902,0 -1.609,-0.287 -2.121,-0.859 -0.512,-0.573 -0.805,-1.383 -0.88,-2.436 H 2.973 C 2.953,-2.242 2.68,-1.432 2.149,-0.859 1.618,-0.287 0.902,0 0,0 m 0.6,-13.146 c -2.512,0 -4.475,0.693 -5.889,2.078 -1.414,1.386 -2.121,3.349 -2.121,5.89 0,2.614 0.653,4.635 1.96,6.063 1.307,1.428 3.114,2.142 5.422,2.142 2.205,0 3.922,-0.627 5.149,-1.884 1.229,-1.256 1.843,-2.991 1.843,-5.205 V -6.127 H -3.099 c 0.047,-1.209 0.406,-2.154 1.076,-2.834 0.669,-0.678 1.609,-1.018 2.818,-1.018 0.939,0 1.828,0.098 2.666,0.293 0.837,0.196 1.712,0.506 2.623,0.936 v -3.295 C 5.34,-12.416 4.545,-12.693 3.698,-12.875 2.852,-13.057 1.818,-13.146 0.6,-13.146" /></g><g
           transform="translate(438.2529,33.1328)"
           id="g360"><path
             id="path362"
             style="fill:#333333;fill-opacity:1;fill-rule:nonzero;stroke:none"
             d="M 0,0 C 0.576,0 1.056,-0.041 1.437,-0.125 L 1.116,-4.117 c -0.345,0.094 -0.763,0.14 -1.256,0.14 -1.358,0 -2.417,-0.349 -3.174,-1.046 -0.759,-0.698 -1.138,-1.676 -1.138,-2.932 v -7.94 h -4.257 v 15.602 h 3.224 l 0.629,-2.623 h 0.209 c 0.483,0.873 1.137,1.578 1.96,2.113 C -1.863,-0.268 -0.968,0 0,0" /></g><g
           transform="translate(669.5371,57.7646)"
           id="g364"><path
             id="path366"
             style="fill:#333333;fill-opacity:1;fill-rule:nonzero;stroke:none"
             d="m 0,0 c 0,-2.279 0.433,-3.996 1.298,-5.149 0.865,-1.155 2.158,-1.731 3.88,-1.731 3.451,0 5.176,2.293 5.176,6.88 0,4.596 -1.715,6.894 -5.149,6.894 C 3.484,6.894 2.187,6.314 1.312,5.156 0.437,3.998 0,2.279 0,0 m 14.891,0 c 0,-3.377 -0.838,-5.973 -2.513,-7.787 -1.675,-1.815 -4.074,-2.722 -7.2,-2.722 -3.126,0 -5.527,0.907 -7.201,2.722 -1.675,1.814 -2.512,4.419 -2.512,7.814 0,3.397 0.839,5.99 2.518,7.781 1.679,1.791 4.087,2.686 7.222,2.686 3.136,0 5.533,-0.902 7.194,-2.707 C 14.06,5.981 14.891,3.386 14.891,0" /></g><g
           transform="translate(697.9443,47.5352)"
           id="g368"><path
             id="path370"
             style="fill:#333333;fill-opacity:1;fill-rule:nonzero;stroke:none"
             d="M 0,0 -0.572,1.996 H -0.795 C -1.251,1.27 -1.897,0.709 -2.735,0.314 c -0.837,-0.395 -1.791,-0.593 -2.861,-0.593 -1.833,0 -3.215,0.491 -4.144,1.472 -0.931,0.982 -1.396,2.394 -1.396,4.236 V 15.602 H -6.88 V 6.489 c 0,-1.126 0.2,-1.969 0.601,-2.533 0.399,-0.562 1.037,-0.844 1.911,-0.844 1.191,0 2.052,0.398 2.582,1.194 0.53,0.795 0.796,2.114 0.796,3.956 v 7.34 H 3.266 L 3.266,0 Z" /></g><g
           transform="translate(710.8193,50.6475)"
           id="g372"><path
             id="path374"
             style="fill:#333333;fill-opacity:1;fill-rule:nonzero;stroke:none"
             d="M 0,0 C 0.744,0 1.638,0.162 2.68,0.488 V -2.68 c -1.061,-0.474 -2.364,-0.712 -3.908,-0.712 -1.703,0 -2.942,0.431 -3.719,1.291 -0.777,0.861 -1.165,2.152 -1.165,3.873 v 7.522 h -2.037 v 1.8 l 2.343,1.424 1.229,3.294 h 2.722 V 12.489 H 2.512 V 9.294 H -1.855 V 1.772 c 0,-0.605 0.168,-1.051 0.508,-1.339 C -1.007,0.144 -0.558,0 0,0" /></g><g
           transform="translate(722.5371,60.0254)"
           id="g376"><path
             id="path378"
             style="fill:#333333;fill-opacity:1;fill-rule:nonzero;stroke:none"
             d="m 0,0 c -1.052,0 -1.819,-0.323 -2.303,-0.97 -0.484,-0.647 -0.735,-1.715 -0.754,-3.203 v -0.461 c 0,-1.674 0.249,-2.874 0.746,-3.599 0.499,-0.727 1.287,-1.089 2.367,-1.089 1.907,0 2.86,1.572 2.86,4.717 0,1.535 -0.235,2.686 -0.704,3.454 C 1.741,-0.384 1.004,0 0,0 m 1.256,-12.77 c -1.833,0 -3.271,0.666 -4.313,1.997 H -3.28 c 0.149,-1.303 0.223,-2.057 0.223,-2.261 v -6.322 H -7.313 V 3.111 h 3.46 l 0.601,-2.023 h 0.195 c 0.995,1.545 2.47,2.317 4.424,2.317 1.842,0 3.284,-0.712 4.326,-2.135 1.042,-1.423 1.563,-3.401 1.563,-5.931 0,-1.666 -0.244,-3.112 -0.733,-4.34 C 6.035,-10.229 5.34,-11.164 4.437,-11.807 3.535,-12.448 2.475,-12.77 1.256,-12.77" /></g><g
           transform="translate(742.9336,47.5352)"
           id="g380"><path
             id="path382"
             style="fill:#333333;fill-opacity:1;fill-rule:nonzero;stroke:none"
             d="M 0,0 -0.572,1.996 H -0.795 C -1.251,1.27 -1.897,0.709 -2.735,0.314 c -0.837,-0.395 -1.791,-0.593 -2.861,-0.593 -1.833,0 -3.215,0.491 -4.144,1.472 -0.931,0.982 -1.396,2.394 -1.396,4.236 V 15.602 H -6.88 V 6.489 c 0,-1.126 0.2,-1.969 0.601,-2.533 0.399,-0.562 1.037,-0.844 1.911,-0.844 1.191,0 2.052,0.398 2.582,1.194 0.53,0.795 0.796,2.114 0.796,3.956 v 7.34 H 3.266 L 3.266,0 Z" /></g><g
           transform="translate(755.8086,50.6475)"
           id="g384"><path
             id="path386"
             style="fill:#333333;fill-opacity:1;fill-rule:nonzero;stroke:none"
             d="M 0,0 C 0.744,0 1.638,0.162 2.68,0.488 V -2.68 c -1.061,-0.474 -2.364,-0.712 -3.908,-0.712 -1.703,0 -2.942,0.431 -3.719,1.291 -0.777,0.861 -1.165,2.152 -1.165,3.873 v 7.522 h -2.037 v 1.8 l 2.343,1.424 1.229,3.294 h 2.722 V 12.489 H 2.512 V 9.294 H -1.855 V 1.772 c 0,-0.605 0.168,-1.051 0.508,-1.339 C -1.007,0.144 -0.558,0 0,0" /></g><g
           transform="translate(677.0352,17.2383)"
           id="g388"><path
             id="path390"
             style="fill:#333333;fill-opacity:1;fill-rule:nonzero;stroke:none"
             d="M 0,0 V 20.402 H 4.326 V 3.572 h 8.276 V 0 Z" /></g><g
           transform="translate(700.0693,24.4668)"
           id="g392"><path
             id="path394"
             style="fill:#333333;fill-opacity:1;fill-rule:nonzero;stroke:none"
             d="m 0,0 -1.646,-0.056 c -1.238,-0.037 -2.159,-0.26 -2.763,-0.67 -0.606,-0.409 -0.907,-1.032 -0.907,-1.87 0,-1.2 0.688,-1.8 2.065,-1.8 0.985,0 1.774,0.284 2.365,0.852 C -0.295,-2.977 0,-2.224 0,-1.283 Z M 1.257,-7.229 0.433,-5.107 H 0.321 c -0.717,-0.903 -1.454,-1.529 -2.212,-1.877 -0.758,-0.349 -1.747,-0.524 -2.965,-0.524 -1.498,0 -2.677,0.428 -3.538,1.284 -0.86,0.856 -1.291,2.075 -1.291,3.657 0,1.656 0.58,2.877 1.738,3.663 1.158,0.786 2.905,1.221 5.24,1.304 L 0,2.484 V 3.168 C 0,4.75 -0.809,5.541 -2.428,5.541 -3.675,5.541 -5.14,5.164 -6.824,4.41 l -1.409,2.875 c 1.796,0.94 3.786,1.409 5.972,1.409 2.094,0 3.698,-0.456 4.815,-1.367 C 3.671,6.415 4.229,5.029 4.229,3.168 V -7.229 Z" /></g><g
           transform="translate(705.0186,32.8398)"
           id="g396"><path
             id="path398"
             style="fill:#333333;fill-opacity:1;fill-rule:nonzero;stroke:none"
             d="m 0,0 h 4.661 l 2.944,-8.777 c 0.251,-0.763 0.424,-1.666 0.517,-2.707 h 0.084 c 0.102,0.958 0.302,1.86 0.6,2.707 L 11.694,0 h 4.564 L 9.657,-17.598 c -0.605,-1.628 -1.468,-2.846 -2.589,-3.656 -1.121,-0.808 -2.43,-1.214 -3.928,-1.214 -0.735,0 -1.456,0.079 -2.163,0.238 v 3.376 c 0.511,-0.12 1.07,-0.18 1.674,-0.18 0.754,0 1.412,0.229 1.975,0.69 0.563,0.461 1.003,1.157 1.319,2.086 l 0.251,0.768 z" /></g><g
           transform="translate(728.542,30.1055)"
           id="g400"><path
             id="path402"
             style="fill:#333333;fill-opacity:1;fill-rule:nonzero;stroke:none"
             d="m 0,0 c -0.902,0 -1.609,-0.286 -2.121,-0.858 -0.512,-0.573 -0.805,-1.384 -0.88,-2.436 H 2.973 C 2.953,-2.242 2.68,-1.431 2.149,-0.858 1.618,-0.286 0.902,0 0,0 m 0.6,-13.146 c -2.512,0 -4.475,0.693 -5.889,2.079 -1.414,1.386 -2.121,3.349 -2.121,5.889 0,2.615 0.653,4.636 1.96,6.064 1.307,1.427 3.114,2.142 5.422,2.142 2.205,0 3.922,-0.628 5.149,-1.884 1.229,-1.256 1.843,-2.992 1.843,-5.206 V -6.127 H -3.099 c 0.047,-1.209 0.406,-2.153 1.076,-2.833 0.669,-0.679 1.609,-1.019 2.818,-1.019 0.939,0 1.828,0.098 2.666,0.293 0.837,0.196 1.712,0.507 2.623,0.936 v -3.294 C 5.34,-12.416 4.545,-12.692 3.698,-12.874 2.852,-13.056 1.818,-13.146 0.6,-13.146" /></g><g
           transform="translate(746.2461,33.1338)"
           id="g404"><path
             id="path406"
             style="fill:#333333;fill-opacity:1;fill-rule:nonzero;stroke:none"
             d="M 0,0 C 0.576,0 1.056,-0.042 1.437,-0.126 L 1.116,-4.117 c -0.345,0.093 -0.763,0.139 -1.256,0.139 -1.358,0 -2.417,-0.348 -3.174,-1.046 -0.759,-0.698 -1.138,-1.675 -1.138,-2.931 v -7.941 h -4.257 v 15.602 h 3.224 l 0.629,-2.623 h 0.209 c 0.483,0.874 1.137,1.579 1.96,2.114 C -1.863,-0.268 -0.968,0 0,0" /></g></g></g></g></svg>